<svg width="16" height="16" viewBox="0 0 16 16" fill="none" xmlns="http://www.w3.org/2000/svg">
<path fill-rule="evenodd" clip-rule="evenodd" d="M5.22007 10.22C5.3607 10.0795 5.55132 10.0007 5.75007 10.0007C5.94882 10.0007 6.13945 10.0795 6.28007 10.22L8.00007 11.94L9.72007 10.22C9.78873 10.1463 9.87153 10.0872 9.96353 10.0462C10.0555 10.0052 10.1548 9.98318 10.2556 9.9814C10.3563 9.97963 10.4563 9.99815 10.5497 10.0359C10.6431 10.0736 10.7279 10.1297 10.7991 10.201C10.8703 10.2722 10.9265 10.357 10.9642 10.4504C11.0019 10.5438 11.0204 10.6438 11.0187 10.7445C11.0169 10.8452 10.9948 10.9445 10.9539 11.0365C10.9129 11.1285 10.8538 11.2113 10.7801 11.28L8.53007 13.53C8.38945 13.6704 8.19882 13.7493 8.00007 13.7493C7.80132 13.7493 7.6107 13.6704 7.47007 13.53L5.22007 11.28C5.07962 11.1394 5.00073 10.9487 5.00073 10.75C5.00073 10.5512 5.07962 10.3606 5.22007 10.22ZM10.7801 5.78C10.6394 5.92045 10.4488 5.99934 10.2501 5.99934C10.0513 5.99934 9.8607 5.92045 9.72007 5.78L8.00007 4.06L6.28007 5.78C6.1379 5.91248 5.94985 5.9846 5.75555 5.98117C5.56125 5.97774 5.37586 5.89903 5.23845 5.76162C5.10104 5.62421 5.02233 5.43882 5.0189 5.24452C5.01547 5.05022 5.08759 4.86217 5.22007 4.72L7.47007 2.47C7.6107 2.32955 7.80132 2.25066 8.00007 2.25066C8.19882 2.25066 8.38945 2.32955 8.53007 2.47L10.7801 4.72C10.9205 4.86062 10.9994 5.05125 10.9994 5.25C10.9994 5.44875 10.9205 5.63937 10.7801 5.78Z" fill="#71717A"/>
</svg>
