<svg width="111" height="101" viewBox="0 0 111 101" fill="none" xmlns="http://www.w3.org/2000/svg">
<g clip-path="url(#clip0_15_94)">
<path d="M47.6249 32.6422C45.7913 30.9084 43.8344 29.3095 41.7694 27.8579C41.532 27.69 41.2843 27.537 41.0277 27.4C40.6959 27.2344 40.8228 27.2441 40.6764 27.2441L38.8416 27.3513L37.8657 27.4195L35.1039 27.9164C33.3334 28.3763 31.5983 28.9624 29.912 29.6704L28.7799 30.1185L27.6771 30.6447C26.9451 31.015 26.2034 31.3463 25.4813 31.7263C24.076 32.5545 22.6316 33.3243 21.2848 34.2695C18.5233 36.0767 15.9123 38.1035 13.4775 40.3302L11.8672 41.8308C11.3402 42.3375 10.8425 42.8832 10.335 43.4093C9.30054 44.4422 8.38313 45.5823 7.40725 46.6736C5.13318 49.5909 3.01885 52.629 1.07351 55.7744C0.439165 56.7489 0 56.3493 0 55.2093C0.018728 54.4535 0.150299 53.7047 0.390368 52.9877C0.73181 52.0379 1.1908 51.1345 1.75666 50.2983C3.99704 47.0673 6.53578 44.0529 9.33956 41.2949C12.1319 38.5042 15.1731 35.9733 18.4254 33.7335C22.3679 30.8962 26.6619 28.5807 31.2002 26.8446C33.754 25.9611 36.4106 25.4077 39.1051 25.1978L40.0811 25.1297H40.6373C40.8618 25.1297 41.1546 25.0225 41.3692 25.2174L42.4525 25.7046C42.7648 25.8799 43.0186 26.0846 43.3016 26.2697C43.8774 26.6497 44.4141 27.0492 44.9314 27.4682C45.4486 27.8872 45.9854 28.2867 46.4831 28.7155C48.9717 30.8104 51.3627 33.032 53.6268 35.3024C57.1109 38.742 60.4584 42.357 63.6591 46.0207C66.148 48.8465 68.6363 51.5943 70.9885 54.5078C71.5057 55.1411 71.9646 55.7842 72.511 56.4565C74.3752 58.9123 74.7459 59.8574 74.6384 60.7148C74.6281 60.9116 74.5983 61.1079 74.5508 61.2995C74.326 61.7965 73.3012 60.9776 71.9446 59.2336C67.797 54.118 63.3272 48.7978 58.5748 43.6432C55.0419 39.8528 51.4213 36.1014 47.5664 32.652L47.6249 32.6422Z" fill="url(#paint0_linear_15_94)"/>
<path d="M70.461 5.44688C69.153 5.80738 67.8845 6.27514 66.616 6.73308C65.347 7.19108 64.1174 7.70751 62.8586 8.2824C61.9409 8.65266 61.1215 9.25676 60.233 9.64653C57.1098 11.1738 54.1862 13.0784 51.528 15.3175L50.6399 16.0678C50.3569 16.3211 50.1129 16.6135 49.8397 16.896L48.288 18.5915L46.6484 20.9885C46.1671 21.8271 45.6427 22.6402 45.0772 23.4245C44.7063 23.9117 44.1891 23.5999 43.9353 22.8594C43.7806 22.3633 43.7302 21.8406 43.7873 21.3242C43.8444 20.8078 44.0078 20.3086 44.2671 19.8582C46.6568 16.2958 49.802 13.3019 53.4799 11.0887C54.5338 10.3773 55.6464 9.72446 56.7492 9.04243C57.8522 8.36033 58.9936 7.72696 60.126 7.09364C61.2577 6.46027 62.7024 5.91458 64.0293 5.32022C65.3567 4.72583 66.6744 4.34581 67.9915 3.81964L70.4804 3.04987C71.3003 2.77704 72.1397 2.55292 72.9785 2.3483L74.9307 1.87084C75.5744 1.71494 76.2187 1.60776 76.8824 1.48108C77.5461 1.35442 78.1709 1.20825 78.834 1.10107L80.7863 0.808752C81.7618 0.623612 82.7865 0.506687 83.7821 0.370271C84.2799 0.311808 84.7582 0.224112 85.2852 0.175392L86.8077 0.0779519C87.2563 0.0779519 87.6957 0.00974397 88.1443 0C89.8328 0.0974398 90.3695 0.311807 90.6332 0.974397C90.707 1.11743 90.766 1.26762 90.8089 1.42262C90.8964 1.90982 90.1938 2.25086 89.0426 2.29958C85.4963 2.48143 81.9655 2.89481 78.473 3.53707C77.1559 3.82939 75.8187 4.04375 74.5108 4.42377L72.5591 4.93045L70.6074 5.53458L70.461 5.44688Z" fill="url(#paint1_linear_15_94)"/>
<path d="M101.183 28.3454L98.1189 22.957C97.7384 22.3041 97.3287 21.661 96.9677 21.0082C95.7084 18.6599 94.4885 16.2824 93.3957 13.8268C92.9173 12.7453 92.4195 11.6539 91.9807 10.5431C91.2844 9.12294 90.9491 7.55342 91.0046 5.97318C91.0046 5.46651 91.3753 5.58344 91.7169 5.97318C92.1495 6.48064 92.4808 7.0661 92.693 7.69787C93.7172 10.5152 94.8964 13.2737 96.2256 15.9608C96.9774 17.6367 98.0119 19.2542 98.9485 20.8815L102.101 26.2407L104.053 29.5244C105.029 31.1809 106.004 32.8666 107.068 34.4938C107.869 35.7605 108.747 36.9493 109.538 38.216C109.713 38.5083 109.889 38.7714 110.045 39.0638C110.65 40.1453 110.572 40.6423 110.328 41.0125C110.273 41.108 110.211 41.1992 110.142 41.2854C109.918 41.5192 109.449 41.1879 108.854 40.5253C107.274 38.4401 105.858 36.0821 104.365 33.7046C103.272 31.9507 102.198 30.1675 101.125 28.3746L101.183 28.3454Z" fill="url(#paint2_linear_15_94)"/>
<path d="M94.8987 45.3583C92.8715 46.0496 90.9119 46.9237 89.0432 47.9697C88.3406 48.3399 87.7157 48.8271 87.0915 49.2267C84.7142 50.7062 82.5171 52.4556 80.5431 54.4397C79.6785 55.344 78.8947 56.3221 78.2006 57.3629C77.3224 58.6781 76.6003 60.0812 75.6631 61.3678C75.361 61.7672 74.8437 61.4459 74.5313 60.7928C74.3397 60.4003 74.247 59.967 74.2601 59.5309C74.2739 59.0948 74.3935 58.6684 74.6092 58.2885C76.3829 55.2912 78.731 52.6722 81.5186 50.581C83.1682 49.3436 84.7977 47.9502 86.5937 46.8394C88.5557 45.6268 90.6235 44.593 92.7714 43.7505C94.0937 43.2356 95.4423 42.79 96.8115 42.4156C98.8947 41.8689 101.025 41.5198 103.174 41.373C104.855 41.2063 106.55 41.2489 108.22 41.4997C108.601 41.5445 108.977 41.626 109.342 41.7432C110.728 42.1817 111.06 42.6397 110.991 43.3121C110.982 43.4658 110.963 43.6189 110.933 43.77C110.757 44.2475 110.142 44.2767 109.313 44.0818C106.657 43.5014 103.914 43.4353 101.233 43.887C99.1133 44.1979 97.0306 44.7202 95.016 45.446L94.8987 45.3583Z" fill="url(#paint3_linear_15_94)"/>
<path d="M95.5029 46.9369C93.7 47.6869 91.9635 48.5865 90.3111 49.6262C89.7057 50.0062 89.1301 50.4252 88.5448 50.8344C86.4433 52.2514 84.4653 53.8419 82.6304 55.5895C81.8265 56.3741 81.0643 57.2003 80.3468 58.0647C79.4434 59.151 78.6183 60.3004 77.8779 61.5038C77.6628 61.8745 77.4872 61.7672 77.4483 61.319C77.4282 60.6316 77.6119 59.9538 77.9752 59.3702C79.5853 56.791 81.6479 54.5233 84.0653 52.676C85.4803 51.5457 86.905 50.318 88.4373 49.2754C90.1143 48.1049 91.8794 47.0657 93.7172 46.1671C94.857 45.6326 96.0265 45.1641 97.2206 44.7639C99.0315 44.1553 100.909 43.766 102.812 43.6044C104.287 43.4469 105.777 43.4797 107.243 43.7018C107.573 43.7391 107.899 43.8009 108.219 43.887C108.651 43.9771 109.062 44.1492 109.429 44.3937C109.628 44.5198 109.768 44.7196 109.82 44.9491C109.849 45.0438 109.865 45.1422 109.868 45.2414C109.868 45.5435 109.322 45.5922 108.532 45.3973C107.322 45.153 106.095 45.0064 104.862 44.9588C103.593 44.9487 102.327 45.0498 101.075 45.2609C99.1722 45.6082 97.315 46.1738 95.5418 46.9466L95.5029 46.9369Z" fill="url(#paint4_linear_15_94)"/>
<path d="M94.1766 50.7466C93.4157 51.0682 92.6444 51.3508 91.9029 51.7211C91.1459 52.0575 90.4066 52.4314 89.6874 52.8416C89.1605 53.1242 88.653 53.4555 88.1454 53.816C86.3048 54.9048 84.5523 56.1363 82.905 57.4994C82.1801 58.1037 81.4952 58.7544 80.8555 59.4482C80.4453 59.8964 80.0259 60.3251 79.6356 60.7831C79.2477 61.2508 78.834 61.6966 78.3963 62.1179C77.8396 62.6441 77.5667 61.2215 78.4547 60.0519C80.0917 58.0865 82.001 56.364 84.1248 54.9366C84.7691 54.5273 85.4031 54.0694 86.0765 53.6017L88.0282 52.3057C88.7703 51.8867 89.5215 51.4482 90.2831 51.0487C91.044 50.6492 91.8147 50.2692 92.6152 49.9476L94.0794 49.3338L95.5721 48.7881C96.324 48.5055 97.1141 48.3302 97.8757 48.0866C98.6367 47.8429 99.4468 47.7163 100.227 47.5701C101.448 47.313 102.689 47.163 103.936 47.1219C104.219 47.1219 104.492 47.1219 104.775 47.1219C105.829 47.2486 106.122 47.5409 106.239 47.9014C106.277 47.9784 106.303 48.0604 106.317 48.145C106.317 48.2619 106.229 48.3497 106.024 48.4276C105.766 48.5365 105.485 48.5832 105.205 48.564C103.084 48.5426 100.968 48.7915 98.9102 49.3046C98.1097 49.4702 97.3287 49.7528 96.5385 49.9574C95.7478 50.162 94.9674 50.4836 94.2058 50.8246L94.1766 50.7466Z" fill="url(#paint5_linear_15_94)"/>
<path d="M22.7293 73.5378C25.2406 75.4866 27.6967 77.4808 30.0974 79.5209C30.9758 80.2709 31.8931 80.9727 32.7422 81.752C34.2548 83.1161 35.6699 84.5485 37.1436 86.0004C37.856 86.7211 38.5392 87.4913 39.2418 88.2315L40.2177 89.3913L40.6959 89.9371L40.9106 90.2096L41.0765 90.4243L41.4474 90.892C41.4474 90.892 41.506 90.9798 41.545 90.9895V90.8432L41.6133 90.5603C41.6621 90.3657 41.7206 90.1706 41.7792 89.9956L41.867 89.7224L42.1208 89.1474C42.6325 87.9934 43.3614 86.9484 44.2678 86.0686C45.2025 85.186 46.3593 84.5732 47.6152 84.2954C48.4057 84.1491 48.3862 84.7826 48.0154 85.5034C47.5685 86.355 46.9699 87.1177 46.2489 87.7541C45.346 88.5403 44.6322 89.5199 44.1604 90.6188C44.1604 90.6188 44.0628 90.8529 43.9945 91.0188C43.9262 91.1841 43.8677 91.3499 43.8091 91.5347C43.692 91.8761 43.5944 92.2463 43.4968 92.6164L43.3407 93.1719C43.2377 93.2408 43.1301 93.3028 43.0186 93.3573L42.4623 93.425H42.0134C42.0134 93.2792 42.2769 94.7409 42.15 94.1171H42.0817L41.7987 94L40.6764 93.5226C40.1202 92.8408 39.6029 92.1682 39.0271 91.4962L38.1683 90.5218C37.6218 89.8395 37.0265 89.1962 36.4507 88.573C34.5121 86.4939 32.4422 84.541 30.2536 82.7265C27.8919 80.6703 25.4618 78.6629 22.983 76.7336C21.4508 75.5451 19.9186 74.3658 18.3376 73.2359C15.9759 71.5109 13.5068 69.8742 11.0963 68.1882C9.21273 66.8827 7.31944 65.6747 5.48473 64.2905C5.0846 63.9984 4.67472 63.7161 4.28435 63.3941C2.83022 62.1959 2.50818 61.6307 2.65456 60.9099C2.66852 60.7429 2.70462 60.5793 2.76191 60.4227C2.97661 59.955 3.73783 60.1983 4.85038 60.9776C8.06113 63.1996 11.5159 65.6552 14.9609 67.9644C17.5666 69.6889 20.2211 71.5792 22.7683 73.4792L22.7293 73.5378Z" fill="url(#paint6_linear_15_94)"/>
<path d="M43.7706 89.9176C44.1317 89.4499 44.5026 88.9431 44.8832 88.534C45.0198 88.3681 45.1369 88.1925 45.2833 88.0273C45.8156 87.4666 46.397 86.9547 47.0204 86.4973C47.3035 86.3022 47.5865 86.0882 47.8988 85.9028C48.1074 85.7639 48.3429 85.6704 48.5901 85.6285C48.8373 85.5866 49.0905 85.5969 49.3333 85.6595C49.4895 85.6595 49.4017 85.9418 49.2748 86.176C49.1479 86.4095 49.0308 86.6437 48.8844 86.7114C48.2291 87.0063 47.6102 87.3759 47.0399 87.8126C46.6695 88.1374 46.3416 88.507 46.064 88.9139C45.703 89.3328 45.3516 89.781 45.0198 90.2389C44.8148 90.5213 44.6197 90.8139 44.4245 91.106C44.1302 91.5462 43.8598 92.0013 43.6144 92.4701C43.4291 92.8408 43.3314 93.2402 43.1851 93.6201C43.1601 93.7028 43.1308 93.7843 43.0972 93.8634C42.9508 94.1659 42.8337 94.2342 42.5409 94.1756H42.3458C42.2371 94.1435 42.145 94.0712 42.0886 93.9731C42.0323 93.8749 42.016 93.759 42.0432 93.6494C42.1665 92.8695 42.4346 92.1195 42.8337 91.4377C43.1265 90.931 43.4583 90.4633 43.8097 89.9468L43.7706 89.9176Z" fill="url(#paint7_linear_15_94)"/>
<path d="M26.7206 84.7046L21.109 80.2709C20.4161 79.7544 19.7037 79.2965 19.0011 78.7703C17.7714 77.8739 16.5124 77.0068 15.2438 76.1592C13.975 75.311 12.7161 74.4439 11.3986 73.6743C10.2373 72.9725 9.05643 72.2908 7.88532 71.628C6.37263 70.7901 4.86972 69.9132 3.43512 68.9388C2.99595 68.6266 3.1521 68.4809 3.64982 68.5199C4.43738 68.598 5.20263 68.8263 5.9042 69.1919C7.50472 69.981 9.04664 70.8682 10.5788 71.7645C12.111 72.6609 13.653 73.567 15.1169 74.6C16.8735 75.8177 18.7766 76.997 20.5625 78.2733C22.5144 79.6959 24.3881 81.1965 26.2912 82.6582L29.7947 85.3961C31.5514 86.7894 33.269 88.2511 34.9379 89.7322C36.2358 90.892 37.5435 91.9829 38.7439 93.2207C39.0172 93.4835 39.2807 93.7469 39.5442 94.0293C40.5201 95.1013 40.6567 95.5299 40.6275 95.9781C40.6381 96.0722 40.6381 96.1669 40.6275 96.2605C40.5396 96.5044 40.0126 96.2025 39.2611 95.5104C37.0068 93.4738 34.7426 91.2914 32.3029 89.2255C30.4876 87.6858 28.6301 86.1857 26.7303 84.7241L26.7206 84.7046Z" fill="url(#paint8_linear_15_94)"/>
<path d="M26.5061 86.4973C24.7202 85.2601 22.9245 84.032 21.0995 82.8435C20.4456 82.4051 19.7527 82.0246 19.0793 81.5862C16.7371 80.0597 14.3689 78.5688 11.9746 77.1141C10.9108 76.4708 9.82763 75.8567 8.75407 75.2433C7.36829 74.4634 5.96294 73.7329 4.63571 72.817C4.22582 72.5243 4.41124 72.3786 4.87969 72.3981C5.6039 72.46 6.30784 72.6689 6.94866 73.0115C8.38325 73.7621 9.81784 74.5219 11.2232 75.3305C12.6285 76.1397 14.0143 77.0068 15.3903 77.9031C17.0201 78.9751 18.8061 79.9593 20.4944 81.0307C22.3584 82.2197 24.2029 83.4277 26.0181 84.6753C27.1404 85.4253 28.2335 86.2345 29.346 87.0138C31.0051 88.212 32.6544 89.4694 34.2256 90.7554C34.86 91.2231 35.4455 91.7298 36.0604 92.2463L36.9777 93.0061L37.8267 93.8347L38.5782 94.575C39.398 95.6275 39.5541 96.0562 39.4663 96.4361C39.4737 96.517 39.4737 96.599 39.4663 96.68C39.3882 96.8647 38.8515 96.5922 38.2562 95.9293C36.2257 93.9478 34.0745 92.0925 31.8151 90.3755L29.1996 88.4266L26.5158 86.5363L26.5061 86.4973Z" fill="url(#paint9_linear_15_94)"/>
<path d="M70.667 18.3382C71.7049 17.9152 72.7674 17.554 73.8482 17.2565C74.2287 17.1299 74.6195 17.0032 75.0194 16.9058C76.4092 16.5852 77.8167 16.3509 79.2357 16.2042L81.1187 15.9606C81.5192 15.9606 81.9192 15.8729 82.3191 15.8437C82.7236 15.834 83.1282 15.8535 83.5292 15.9022C84.027 15.9606 83.3931 16.8765 82.5537 17.0129C80.9728 17.1591 79.4211 17.3442 77.8299 17.5391C76.8635 17.6943 75.9131 17.9357 74.9902 18.2602C73.9569 18.5635 72.9408 18.9212 71.9452 19.332C71.3307 19.5854 70.7253 19.8485 70.1303 20.1505C69.2274 20.5902 68.3594 21.0984 67.5344 21.6706C66.9279 22.1416 66.354 22.6527 65.8167 23.2004L65.4654 23.5609C65.0163 23.9896 64.8017 24.0481 64.4309 23.8532L64.1477 23.7558C63.884 23.5804 63.904 23.2102 64.2061 22.7814C65.1421 21.5967 66.2985 20.6041 67.6122 19.8582C68.5872 19.2725 69.601 18.7548 70.6475 18.3089L70.667 18.3382Z" fill="url(#paint10_linear_15_94)"/>
<path d="M73.6617 26.942C74.433 26.5522 75.2329 26.2112 76.0236 25.8896C76.3165 25.7727 76.5895 25.6265 76.8921 25.5194C77.9266 25.1491 78.9903 24.8373 80.0442 24.545C80.5128 24.4183 81.0203 24.2819 81.4403 24.1357C82.0216 23.9162 82.6344 23.788 83.2552 23.7557C83.6454 23.7557 83.353 24.7301 82.7185 24.9932C81.557 25.3537 80.3955 25.685 79.1951 25.9676C78.4742 26.1808 77.775 26.4614 77.1067 26.8056C76.3554 27.1369 75.6042 27.4876 74.8718 27.8774C74.4135 28.1112 73.9644 28.3548 73.5352 28.6277C72.8561 29.0155 72.2038 29.4484 71.583 29.9236C71.1459 30.3214 70.7316 30.7443 70.3437 31.1904L70.0708 31.5509C69.7292 31.8919 69.5535 31.9212 69.2022 31.7068L68.9968 31.5509C68.9373 31.5013 68.8881 31.4402 68.8526 31.3711C68.8172 31.3021 68.796 31.2266 68.7908 31.1493C68.7851 31.0719 68.7954 30.9942 68.8206 30.9209C68.8463 30.8475 68.8864 30.7801 68.9385 30.7227C69.5942 29.7653 70.433 28.9472 71.4074 28.3159C72.1277 27.8191 72.8738 27.3605 73.6422 26.942H73.6617Z" fill="url(#paint11_linear_15_94)"/>
<path d="M25.0035 46.703C26.1063 45.8651 27.2384 45.0466 28.4095 44.2962C28.8389 44.0234 29.2488 43.7213 29.688 43.468C30.4687 43.0198 31.269 42.6203 32.0302 42.2013C32.7914 41.7823 33.5819 41.3633 34.3919 40.9638C35.2019 40.5643 35.8168 40.2623 36.5682 39.9895C37.5375 39.5206 38.6278 39.3607 39.6911 39.5315C40.0327 39.6094 39.9157 39.8823 39.6326 40.1453C39.3063 40.4523 38.9064 40.6705 38.4713 40.7787C36.6178 41.3185 34.8379 42.0843 33.172 43.0588C32.0887 43.624 31.025 44.3255 30.0003 45.0076C28.9756 45.6896 27.7654 46.5277 26.6822 47.3559C26.0316 47.8626 25.3809 48.3888 24.7303 48.9344C23.7544 49.7529 22.7785 50.6103 21.9196 51.5165C21.2365 52.2181 20.6315 52.9782 19.9678 53.7187C19.8312 53.8746 19.7043 54.05 19.5579 54.2059C19.0212 54.7905 18.7772 54.9172 18.3868 54.8003C18.3006 54.7801 18.2158 54.754 18.1331 54.7223C17.8793 54.5957 17.9282 54.2059 18.2502 53.6895C19.2503 52.1411 20.4404 50.7237 21.7928 49.4703C22.7687 48.496 23.8715 47.5898 24.9645 46.7128L25.0035 46.703Z" fill="url(#paint12_linear_15_94)"/>
<path d="M64.6684 67.0342C63.5629 63.5904 67.2568 60.8714 67.2568 60.8714L68.7078 61.6651C67.5801 62.3038 66.691 63.2908 66.1743 64.4782C65.4614 66.326 65.8636 67.0847 65.8636 67.0847L64.6684 67.0342Z" fill="url(#paint13_linear_15_94)"/>
<path d="M49.7656 54.8596C50.0672 54.8785 50.5033 55.3378 50.6783 55.5456C50.9389 55.9227 51.0853 56.3666 51.1 56.8244C51.1147 57.2823 50.997 57.7347 50.7612 58.1278C49.0632 60.7125 47.8747 56.2162 46.1328 57.5315C45.6978 57.8575 43.4847 56.0225 43.4847 56.0225C43.4847 56.0225 47.2934 54.5929 48.7565 54.7394C50.2196 54.8857 49.7692 54.8591 49.7656 54.8596Z" fill="url(#paint14_linear_15_94)"/>
<path d="M68.5585 67.099C69.1312 67.2499 69.7131 67.363 70.3002 67.4376C70.8294 67.5082 71.3661 67.5024 71.8937 67.4209C72.0161 67.4026 72.1042 67.363 72.2112 67.3429C72.2947 67.3102 72.3766 67.2717 72.4544 67.227C72.519 67.1931 72.5774 67.1489 72.6277 67.0956C72.6901 67.0387 72.7439 66.9733 72.7874 66.9016C72.8812 66.7518 72.9373 66.5814 72.9504 66.4046C72.963 66.2284 72.9327 66.0517 72.8618 65.8899C72.6409 65.277 72.0287 64.6515 71.401 64.0776C70.2023 63.0343 68.8858 62.1334 67.4788 61.3931C66.0484 60.6654 64.539 60.1053 62.9799 59.7237C61.5718 59.3668 60.142 59.0993 58.699 58.9249C57.7801 58.7986 56.8497 58.7493 55.9222 58.6437L53.1518 58.3045C52.5864 58.242 52.6375 58.0044 53.1411 57.7318C53.9326 57.3305 54.8013 57.1034 55.6882 57.0661C59.5887 57.122 63.5463 57.6601 67.2574 59.3949C68.3731 59.9481 69.4168 60.5237 70.4518 61.1916C71.5509 61.8269 72.5591 62.6079 73.4494 63.5129C73.9803 64.073 74.382 64.7421 74.6257 65.4732C74.751 65.9088 74.7779 66.3668 74.703 66.8138C74.6297 67.2511 74.4552 67.6648 74.1932 68.0235C74.0559 68.2089 73.8991 68.3793 73.7252 68.5319C73.5529 68.672 73.3658 68.7925 73.1667 68.8912L72.8772 69.0255L72.5877 69.1144C72.3994 69.1701 72.2072 69.2114 72.0127 69.2384C71.2997 69.3319 70.5777 69.3273 69.8665 69.2252C68.2209 68.9841 66.6131 68.5325 65.0837 67.8818C62.7814 66.936 60.6741 65.6517 58.6017 64.4001C56.9932 63.4142 55.4119 62.4587 53.8727 61.4063C53.5356 61.1773 53.1966 60.9598 52.8641 60.7119C52.4323 60.3831 52.0353 60.0112 51.6794 59.602C51.5109 59.3886 51.3909 59.1412 51.328 58.8767C51.3058 58.786 51.2918 58.693 51.2863 58.6001C51.2691 58.4853 51.432 58.4876 51.7135 58.5737C52.1363 58.6942 52.543 58.8646 52.9249 59.0827C53.2856 59.2927 53.6672 59.4655 54.0154 59.6927L55.0861 60.3475L57.2256 61.6685C58.6881 62.5402 60.1723 63.405 61.6874 64.197C62.8048 64.784 63.956 65.3212 65.0958 65.8296C66.2121 66.3455 67.3741 66.7564 68.5671 67.056L68.5585 67.099Z" fill="url(#paint15_linear_15_94)"/>
<path d="M45.5726 54.2171C45.6281 54.2088 45.7057 54.1971 45.7329 54.1515L45.8328 54.1365L46.0286 54.0806L46.4293 53.9789C46.6959 53.9162 46.9668 53.8565 47.2394 53.808C47.8078 53.7041 48.3841 53.6491 48.962 53.6436C49.4255 53.6135 49.8909 53.6504 50.3439 53.7531C50.7904 53.8851 51.208 54.1004 51.5742 54.3877C51.7698 54.5321 51.9474 54.6994 52.1032 54.886C52.2296 55.0576 52.3451 55.237 52.4489 55.4231C52.8914 56.1745 53.026 57.0675 52.8246 57.9155C52.653 58.6357 52.2709 59.2887 51.7269 59.7914C51.3989 60.103 50.9995 60.3303 50.5634 60.4531C50.4561 60.4692 50.3452 60.4858 50.238 60.5019C50.1313 60.5099 50.0243 60.5122 49.9174 60.5088C49.7073 60.511 49.4978 60.4864 49.2938 60.4364C49.0395 60.3802 49.0855 60.2333 49.262 59.9992C49.35 59.8804 49.4701 59.749 49.5789 59.5929C49.6912 59.4356 49.8125 59.2853 49.9421 59.1418C50.1342 58.9719 50.3126 58.7877 50.4754 58.5898C50.5869 58.413 50.6714 58.2208 50.726 58.0193C50.7573 57.8294 50.77 57.6366 50.764 57.4437C50.7513 57.3967 50.744 57.3483 50.7423 57.2996C50.7544 57.2467 50.7602 57.1926 50.7596 57.1384C50.7684 57.0218 50.7647 56.9046 50.7486 56.7889C50.7426 56.7134 50.7238 56.6396 50.6929 56.5706C50.6722 56.4948 50.6384 56.4232 50.593 56.3591C50.5502 56.3013 50.4977 56.2035 50.4668 56.1741C50.4307 56.1312 50.3894 56.093 50.3437 56.0604C50.0861 55.9048 49.802 55.7978 49.5056 55.7445C48.5932 55.5762 47.6573 55.5798 46.7462 55.7552L46.0177 55.8646C45.8586 55.8886 45.6961 55.9394 45.5298 55.9908L45.1979 56.0973L45.0218 56.1578L44.9996 56.1612L45.0293 56.1831L45.092 56.2228L45.8417 56.7295L46.1935 56.956L46.6699 57.2809C47.0291 57.5166 47.364 57.7875 47.6693 58.0899C47.8043 58.2213 47.9272 58.3648 48.0364 58.518C48.2265 58.7642 48.3163 59.0735 48.2878 59.3828C48.2717 59.4873 48.2223 59.5837 48.1469 59.6577C48.0714 59.7312 47.9741 59.7788 47.8693 59.7931C47.7723 59.823 47.6713 59.8379 47.5697 59.8379C47.4268 59.8086 47.2903 59.7541 47.1671 59.6761C47.0606 59.6348 46.9636 59.5722 46.8822 59.4919C46.5232 59.1051 46.1307 58.751 45.709 58.4337L45.2467 58.0761C45.2163 58.0509 45.1919 58.0394 45.1094 57.9688L44.6839 57.6549C44.401 57.4592 44.133 57.2619 43.8396 57.0718L42.8945 56.5228L41.8178 55.8538C42.4274 55.6074 43.0401 55.3567 43.6492 55.1066C44.2299 54.6881 44.8782 54.3723 45.566 54.1728L45.5726 54.2171Z" fill="url(#paint16_linear_15_94)"/>
<path d="M65.5157 64.5769C65.6891 64.1488 65.9019 63.7373 66.1514 63.3482C66.2481 63.2128 66.3082 63.0607 66.41 62.9322C66.7848 62.4909 67.2225 62.107 67.7094 61.7925C67.8164 61.7236 67.9245 61.6622 68.027 61.5899C68.1225 61.5107 68.2284 61.4442 68.3411 61.3919C68.4841 61.3202 68.6312 61.2565 68.7816 61.2008C68.9384 61.1607 69.1003 61.144 69.2617 61.1515C69.3652 61.1584 69.3961 61.3391 69.3836 61.5561C69.3916 61.7609 69.3366 61.9629 69.2251 62.1351C68.8686 62.4794 68.4618 62.7669 68.0184 62.9884C67.7638 63.1818 67.5618 63.4355 67.4296 63.7264C67.2374 64.0271 67.0749 64.3462 66.9456 64.679C66.8643 64.8868 66.8008 65.1014 66.755 65.3195C66.6841 65.6506 66.6612 65.9897 66.6869 66.3266C66.727 66.5797 66.8151 66.823 66.9467 67.0428C66.9725 67.0898 66.9879 67.1415 66.9919 67.1948C67.0205 67.3831 66.941 67.4818 66.6818 67.6453C66.6229 67.6809 66.5651 67.7234 66.5056 67.7549C66.4123 67.8117 66.3042 67.8376 66.196 67.8295C66.0873 67.8215 65.9843 67.7796 65.9008 67.7096C65.6256 67.5099 65.4282 67.2207 65.3424 66.8913C65.2394 66.582 65.1902 66.2571 65.1982 65.9312C65.2382 65.4606 65.3401 64.9969 65.5008 64.5528L65.5157 64.5769Z" fill="url(#paint17_linear_15_94)"/>
<path d="M54.1227 56.08L52.6266 61.4946C52.7513 63.1749 52.9633 66.6106 52.8136 66.9091C52.6641 67.208 56.3667 72.7596 58.2367 75.4981L66.465 77.1783L71.1401 73.2577L72.4487 68.0298L71.5138 65.0423L69.6439 64.8552C69.0208 65.7889 67.6991 67.7308 67.3999 68.0298C67.1006 68.3282 65.6548 72.5105 64.9688 74.5644L62.3505 75.4981L60.4807 71.5769L61.042 64.8552C61.7274 62.1793 63.0989 56.7895 63.0989 56.6402C63.0989 56.4908 61.7274 56.2045 61.042 56.08L57.4888 59.6273L56.3667 56.08H54.1227Z" fill="white"/>
<path d="M61.2291 69.3577C61.197 70.4045 61.2886 71.4506 61.5026 72.4761C61.5546 72.7206 61.6227 72.9616 61.7074 73.1969C61.7732 73.4259 61.8613 73.6479 61.9706 73.8597C62.065 74.0651 62.1794 74.2608 62.3122 74.4439L62.3906 74.561L62.4587 74.6292C62.5273 74.6878 62.5954 74.7756 62.6538 74.7951C62.7127 74.8146 62.81 74.9122 62.8689 74.9024C62.9273 74.8927 62.9564 74.9024 63.0737 74.8341C63.4176 74.5701 63.7031 74.2384 63.9131 73.8597C64.4635 72.9237 64.9396 71.9464 65.3378 70.9364C65.9821 69.4163 66.4896 67.8181 67.2895 66.2399C67.5532 65.6534 67.8805 65.0979 68.2656 64.5832C68.5093 64.1821 68.8835 63.8762 69.3258 63.7167C69.7675 63.5571 70.251 63.5537 70.6956 63.7063C71.393 64.0558 71.9783 64.5935 72.3857 65.2581C72.7925 65.9232 73.0048 66.6881 72.9985 67.4674C73.0523 68.7311 72.9344 69.9964 72.6472 71.2285C72.3937 72.4273 72.0522 73.5865 71.7398 74.717C71.6619 74.9994 71.5933 75.2628 71.5349 75.5354C71.4766 75.8085 71.3787 76.1689 71.2809 76.4513C71.0955 77.0458 70.8809 77.611 70.6858 78.1665C69.6851 80.4786 69.2926 83.0071 69.5438 85.5131C69.7938 87.0689 70.3511 88.5598 71.1836 89.898L71.8279 90.9895C72.0516 91.3832 72.2444 91.7935 72.4035 92.217C72.6638 92.9694 72.9705 93.7045 73.3206 94.4195C73.5455 94.7994 73.6136 94.975 73.506 95.0915C73.399 95.2086 73.0769 95.1891 72.6375 94.9067C72.0979 94.5096 71.635 94.0172 71.2712 93.4548C71.0469 93.1329 70.8323 92.7823 70.608 92.4804C70.5004 92.3048 70.3929 92.1585 70.2859 92.0127C70.1783 91.8664 70.0513 91.7005 69.9048 91.4767C68.8154 89.956 68.0693 88.2172 67.7192 86.3808C67.4085 84.5353 67.4714 82.6467 67.9045 80.8264C68.3628 79.1559 68.9064 77.5106 69.5341 75.8958C69.593 75.7012 69.6319 75.5354 69.6805 75.3506L69.8562 74.6975L70.2172 73.4505C70.4615 72.6414 70.6956 71.8328 70.8907 71.034C71.1756 69.9632 71.3003 68.8568 71.2614 67.7503C71.2408 67.2614 71.1247 66.7817 70.9198 66.3369C70.8271 66.151 70.7013 65.9823 70.5491 65.8405C70.4713 65.7722 70.4221 65.6747 70.3248 65.6357L70.1783 65.5479C70.1159 65.5111 70.0416 65.4997 69.9706 65.5157C69.8997 65.5318 69.8379 65.5748 69.7978 65.6357C69.7028 65.7407 69.6153 65.8509 69.5341 65.9668C69.4368 66.1326 69.3292 66.2887 69.232 66.4735C68.8349 67.2367 68.4796 68.0206 68.1677 68.8218C67.4016 71.0547 66.4209 73.2084 65.24 75.253C64.8492 75.8808 64.2776 76.3761 63.6007 76.6757C63.1659 76.8352 62.6887 76.8352 62.2538 76.6757C61.8831 76.5442 61.5484 76.3273 61.2777 76.0421C60.3932 75.0396 59.8233 73.7994 59.6385 72.4761C59.2357 69.5506 59.3879 66.5756 60.0876 63.7063C60.3582 62.3847 60.717 61.0826 61.161 59.8086C61.2777 59.497 61.395 59.1849 61.522 58.8342L61.815 58.1232C61.8831 57.9574 61.9609 57.7915 62.0198 57.6165C62.0782 57.4409 62.1955 57.2169 62.0198 57.1097C61.5901 56.8076 61.0437 57.1097 60.741 57.4311C60.6432 57.5184 60.5516 57.613 60.4681 57.714C60.3365 57.8604 60.2129 58.013 60.0973 58.172C59.8542 58.4813 59.6322 58.8067 59.4336 59.1464C57.863 61.9331 56.9578 65.044 56.7887 68.237C56.7887 68.9388 56.7887 69.6114 56.7887 70.3029C56.9546 72.8463 57.1205 73.6353 56.9644 74.2981C56.9416 74.4525 56.909 74.6057 56.8668 74.7561C56.7887 74.9311 56.6033 74.7561 56.291 74.3567C55.842 73.6835 55.512 72.9386 55.3151 72.1542C54.7049 69.0347 54.9064 65.8101 55.9006 62.7904C56.3722 61.2249 57.0273 59.7203 57.8527 58.308C58.0639 57.9419 58.295 57.5872 58.5456 57.2461C58.6818 57.0707 58.7991 56.8953 58.9456 56.7296L59.1699 56.4665C59.286 56.3359 59.4102 56.2122 59.5406 56.0963C59.8021 55.8326 60.0939 55.6003 60.4092 55.4045C60.685 55.2168 60.9876 55.0722 61.3075 54.9757C61.859 54.7938 62.4575 54.8145 62.9954 55.0342C63.2105 55.1414 63.4153 55.2583 63.6299 55.385C63.8839 55.765 64.0985 55.9111 64.1374 56.2912C64.1946 56.7374 64.134 57.1909 63.9617 57.6067C63.7958 58.0939 63.5521 58.6781 63.3764 59.0976L63.0737 59.8574C62.6841 60.8491 62.358 61.8642 62.0976 62.8978C61.5701 64.9694 61.2754 67.0938 61.2194 69.2309L61.2291 69.3577Z" fill="url(#paint18_linear_15_94)"/>
<path d="M51.6163 64.9924C51.5721 63.3649 51.6471 61.7363 51.8407 60.1203C51.8943 59.5108 51.9856 58.906 52.114 58.308C52.2732 57.6377 52.4988 56.9847 52.7874 56.359C52.9359 56.0165 53.119 55.69 53.3339 55.3846C53.578 55.0161 53.8775 54.6875 54.222 54.4102C54.3378 54.3232 54.4661 54.2542 54.6026 54.2056C54.7317 54.1362 54.8757 54.0994 55.0223 54.0984C55.313 54.0902 55.6013 54.1538 55.8615 54.2835C56.115 54.4065 56.346 54.5712 56.5447 54.7708C56.7101 54.9258 56.8574 55.0991 56.9838 55.2872C57.5581 56.1146 57.9598 57.0491 58.1646 58.0348C58.497 59.2365 58.4764 60.5082 58.1062 61.699C57.9889 62.0593 57.6668 61.9325 57.3447 61.5819C57.1623 61.385 57.0109 61.1618 56.896 60.9191C56.7346 60.6712 56.6404 60.386 56.6228 60.091C56.5981 59.089 56.3966 58.0997 56.0274 57.1677C55.8956 56.7506 55.6943 56.3586 55.4321 56.0082C55.3541 55.9108 55.3736 55.9205 55.3541 55.901C55.3448 55.874 55.3279 55.8503 55.3053 55.8328C55.28 55.8183 55.2514 55.8107 55.2223 55.8107C55.1932 55.8107 55.1646 55.8183 55.1394 55.8328C55.1394 55.8328 55.0028 55.9498 54.9051 56.0374L54.6417 56.3979C54.4811 56.6704 54.3471 56.9575 54.2415 57.2555C54.0245 57.8908 53.8581 58.5427 53.7438 59.2044C53.4903 60.7435 53.3695 62.3021 53.3827 63.8618C53.3827 64.8363 53.3827 65.8107 53.4803 66.7851C53.5804 68.2617 53.7596 69.7319 54.017 71.1895C54.2521 72.2965 54.5486 73.3891 54.9051 74.4634C54.9735 74.697 55.0711 74.9311 55.1198 75.1744C55.3443 76.0708 55.3053 76.383 54.9637 76.6848C54.8906 76.7589 54.8123 76.8271 54.7295 76.8897C54.4464 77.0647 54.0756 76.7726 53.7536 76.1293C52.8998 74.1374 52.3346 72.0348 52.075 69.8834C51.8377 68.2691 51.6879 66.6428 51.6261 65.0119L51.6163 64.9924Z" fill="url(#paint19_linear_15_94)"/>
<path d="M47.8885 70.6828C47.5761 69.6303 47.2931 68.5687 47.0394 67.4967C46.9418 67.107 46.8149 66.7174 46.7369 66.3174C46.6015 65.6001 46.5167 64.8741 46.4831 64.1448C46.4695 63.7476 46.4891 63.35 46.5417 62.9557C46.6262 62.5305 46.7883 62.1242 47.0199 61.7575C47.2379 61.3598 47.5808 61.0447 47.9958 60.8611C48.2155 60.7871 48.4485 60.7607 48.6792 60.7842C48.9098 60.8077 49.1327 60.8806 49.3328 60.9977C49.7401 61.2278 50.1088 61.5205 50.4259 61.8648C50.7088 62.1471 50.94 62.4771 51.109 62.8392C51.2164 63.0728 50.9528 63.2289 50.5625 63.2776C50.3518 63.3161 50.1356 63.3132 49.9261 63.2679C49.7167 63.2226 49.5184 63.1365 49.3426 63.0142C49.1236 62.7996 48.8814 62.6102 48.6204 62.4496C48.6204 62.4496 48.6204 62.4496 48.5619 62.4496C48.4774 62.558 48.4054 62.6757 48.3471 62.8002C48.2496 62.9557 48.2495 63.0142 48.1812 63.1118C48.1129 63.2094 48.1129 63.4045 48.1032 63.5795C48.0895 64.5069 48.2213 65.4308 48.4936 66.3174C48.7277 67.3504 49.001 68.3931 49.3036 69.426C49.4987 70.0596 49.6939 70.6925 49.9086 71.3163C50.2502 72.2908 50.582 73.2652 50.9919 74.1225C51.1578 74.4927 51.3334 74.7853 51.5384 75.1847C51.726 75.5796 51.8668 75.995 51.9581 76.422L52.0654 76.9092C52.1277 77.0825 52.1319 77.2713 52.0774 77.4469C52.0228 77.6231 51.9124 77.7763 51.7628 77.8836L51.5677 78.0885C51.3725 78.3123 50.9236 78.1763 50.5917 77.6305C50.2111 76.8312 50.1428 76.1689 49.9086 75.789C49.6061 75.2043 49.2743 74.4829 49.001 73.8402C48.5814 72.8658 48.23 71.7743 47.8787 70.7218L47.8885 70.6828Z" fill="url(#paint20_linear_15_94)"/>
<path d="M47.9667 80.066C49.5554 81.6442 51.2265 83.1368 52.9731 84.5387C53.6173 85.0747 54.2907 85.5717 54.925 86.1369C57.1606 88.1041 59.2059 90.2768 61.0345 92.6262C61.8344 93.6884 62.6252 94.7604 63.3083 95.8806C64.2553 97.3026 64.9178 98.8945 65.26 100.567C65.3578 101.094 65.0162 101.103 64.5574 100.792C63.936 100.343 63.4279 99.7559 63.0737 99.0764C61.5827 96.1761 59.7117 93.4858 57.5112 91.0767C56.1297 89.5612 54.6213 88.1661 53.0024 86.9065C51.2653 85.4449 49.4599 83.9832 47.7618 82.3948C46.716 81.406 45.7379 80.3478 44.834 79.2282C44.1345 78.3726 43.5077 77.4595 42.9603 76.5C42.6778 76.0059 42.4489 75.4832 42.2771 74.9409C42.0279 74.2884 42.0279 73.567 42.2771 72.914C42.4189 72.662 42.6306 72.456 42.8869 72.3212C43.1431 72.1863 43.4329 72.1283 43.7215 72.1542C44.0081 72.1547 44.2887 72.2357 44.5315 72.3877L44.9121 72.6219L45.1951 72.8359C45.8782 73.3817 46.4638 73.9274 47.0786 74.4732C47.3421 74.7067 47.6154 74.9213 47.8691 75.1652C48.845 76.0226 48.9524 76.4122 49.0012 76.8702C49.0095 76.9741 49.0095 77.0779 49.0012 77.1818C49.0012 77.3379 48.8548 77.4062 48.5425 77.3769C48.1185 77.3247 47.7117 77.1778 47.3519 76.9482C46.7146 76.5247 46.114 76.049 45.5562 75.5256C45.0097 75.0384 44.4339 74.4829 43.9557 74.103C43.819 73.9859 43.8386 74.0152 43.8288 74.0152C43.8992 74.297 43.9973 74.5713 44.1216 74.8335C45.1476 76.7319 46.4648 78.4581 48.0252 79.9495L47.9667 80.066Z" fill="url(#paint21_linear_15_94)"/>
<path d="M37.9246 46.8392C38.315 46.5469 38.7053 46.274 39.1152 46.0012C39.2616 45.9135 39.3885 45.7868 39.5446 45.6991C40.0848 45.3889 40.6419 45.1091 41.2135 44.8612C41.4769 44.754 41.7209 44.6273 41.9747 44.5201C42.2746 44.3509 42.6074 44.2479 42.9506 44.218C43.1653 44.218 43.1165 44.9976 42.8042 45.1925L41.9552 45.6602C41.6526 45.7868 41.3501 45.9233 41.028 46.0402C40.6587 46.2204 40.3116 46.4427 39.9935 46.7027C39.6227 46.9659 39.2323 47.2192 38.8712 47.5018C38.5102 47.7844 38.4125 47.8525 38.1979 48.0377C37.9831 48.2228 37.5342 48.6029 37.2219 48.9146C36.9096 49.2265 36.812 49.4506 36.5778 49.6844C36.5309 49.7442 36.4786 49.7997 36.4217 49.85C36.207 50.0352 36.0899 50.0449 35.8849 49.9085L35.7483 49.8208C35.6818 49.7582 35.6387 49.6748 35.6263 49.5844C35.6139 49.494 35.6328 49.402 35.68 49.3239C35.9275 48.7373 36.3006 48.2118 36.773 47.7844C37.1146 47.4531 37.4855 47.151 37.8563 46.8099L37.9246 46.8392Z" fill="url(#paint22_linear_15_94)"/>
<path d="M61.7755 46.9271C60.0871 45.0563 58.3597 43.2439 56.5932 41.4218L54.6414 39.473C52.3512 37.1734 50.0057 34.9323 47.605 32.7496C46.5315 31.7752 45.4189 30.8593 44.3064 29.9726C43.5842 29.4075 42.8425 28.8618 42.1105 28.3258C41.3786 27.7899 40.6467 27.2053 39.9343 26.7863C39.7293 26.6694 39.7 26.6012 39.6903 26.494C39.6805 26.3868 39.8464 26.2601 40.1489 26.2504C41.0354 26.2617 41.8984 26.5364 42.6278 27.0396C45.7073 29.2833 48.602 31.7695 51.2842 34.4743C52.8945 36.0821 54.6707 37.6508 56.32 39.2878C58.1451 41.0807 59.9211 42.9224 61.6679 44.7932C62.7413 45.9429 63.8021 47.1058 64.8498 48.2815C66.4404 50.0549 67.9824 51.8868 69.5049 53.6992C70.6853 55.0731 71.8857 56.4275 72.9985 57.8598C73.252 58.1812 73.4963 58.4836 73.7401 58.8342C74.6281 60.0525 74.7162 60.5587 74.6572 60.9977C74.6572 61.0947 74.6572 61.2215 74.5892 61.2898C74.4621 61.5429 73.9352 61.163 73.2034 60.3154C71.115 57.8695 69.0071 55.2192 66.7917 52.6371C65.1519 50.6883 63.4737 48.798 61.7463 46.9271H61.7755Z" fill="url(#paint23_linear_15_94)"/>
<path d="M19.0201 72.5731C21.128 74.1128 23.2263 75.6909 25.2464 77.3476C25.9881 77.9324 26.7493 78.4977 27.491 79.1014C30.0935 81.2258 32.6016 83.4444 35.0154 85.7565C36.0792 86.7894 37.1917 87.7931 38.2262 88.8456C39.6046 90.158 40.8681 91.5858 42.003 93.1134C42.3543 93.6006 42.0811 93.7079 41.5443 93.5128C40.7524 93.149 40.0472 92.6204 39.4754 91.9634C36.8696 89.1962 34.1176 86.5656 31.2874 83.9149C29.6088 82.3368 27.696 80.8654 25.832 79.394C23.7891 77.7763 21.7169 76.1976 19.6154 74.6585C18.3174 73.6841 17.0194 72.778 15.7117 71.881C13.6915 70.5169 11.6811 69.0943 9.71954 67.6717C8.16783 66.629 6.63563 65.5283 5.17175 64.3686C4.8497 64.1155 4.51788 63.8813 4.19583 63.599C3.03449 62.6246 2.7905 62.1179 2.76123 61.6502C2.75147 61.5463 2.75147 61.4419 2.76123 61.3386C2.81978 61.0752 3.40534 61.3386 4.31294 62.0008C6.94791 63.9496 9.70975 66.0546 12.579 68.0419C14.6967 69.5328 16.8828 70.9651 19.0298 72.5243L19.0201 72.5731Z" fill="url(#paint24_linear_15_94)"/>
<path d="M27.0238 86.5656C25.3257 85.318 23.6081 84.0905 21.8612 82.9015C21.2269 82.4533 20.5632 82.0637 19.9093 81.635C17.6745 80.0953 15.4006 78.5946 13.0779 77.1233C12.0532 76.4903 11.009 75.8567 9.97448 75.2525C8.64723 74.4634 7.29069 73.7225 6.02202 72.8164C5.62188 72.5341 5.80729 72.3877 6.27572 72.3975C6.98183 72.4509 7.66786 72.6569 8.28614 73.0018C9.67192 73.7616 11.048 74.5219 12.4045 75.3403C13.7611 76.1586 15.0785 77.0263 16.3961 77.9226C17.9673 79.0038 19.6751 79.9977 21.2757 81.0795C23.0648 82.2685 24.828 83.4863 26.5651 84.7333C27.6484 85.4936 28.6828 86.3022 29.7466 87.0821C31.3471 88.2901 32.9086 89.5468 34.431 90.8237C35.0459 91.2914 35.6022 91.7981 36.1974 92.3146C36.8185 92.8029 37.4024 93.3372 37.9444 93.9122L38.6568 94.6433C39.4473 95.6763 39.6327 96.0854 39.4961 96.4653C39.4961 96.5531 39.4961 96.6507 39.4375 96.7087C39.379 96.7672 38.8227 96.6312 38.2469 95.9781C36.292 94.0362 34.233 92.2015 32.0791 90.4822L29.571 88.534L27.0141 86.5851L27.0238 86.5656Z" fill="url(#paint25_linear_15_94)"/>
<path d="M68.4218 95.6763C67.789 95.9913 67.1367 96.2679 66.4701 96.5044C66.2264 96.5922 66.0015 96.719 65.7578 96.7867C64.8744 97.065 63.9515 97.197 63.0251 97.1769C62.5697 97.1792 62.1177 97.1035 61.688 96.9525C61.363 96.8326 61.0855 96.6105 60.8978 96.319C60.8051 96.1767 60.7416 96.0171 60.7113 95.8496C60.681 95.6826 60.685 95.5104 60.7222 95.3446C60.7222 95.15 61.0637 95.2086 61.3859 95.3446C61.7074 95.4812 62.049 95.5299 62.0982 95.5494C62.1469 95.569 62.176 95.5495 62.2447 95.608C62.362 95.6436 62.4833 95.6665 62.6057 95.6763C63.0022 95.7004 63.3999 95.7004 63.7964 95.6763C64.3485 95.608 64.8858 95.4496 65.387 95.2086C65.9723 94.9842 66.5582 94.7311 67.1241 94.4482C67.4657 94.2634 67.817 94.0781 68.1002 93.8634C68.6003 93.5599 69.0597 93.1932 69.466 92.7725C69.7372 92.4489 69.9392 92.0747 70.0616 91.6713C70.057 91.5932 70.057 91.5152 70.0616 91.4377C70.1297 91.1938 70.2373 91.1938 70.735 91.1841H71.0766C71.1659 91.1749 71.2563 91.1858 71.341 91.2156C71.4256 91.246 71.5023 91.2942 71.5658 91.3579C71.6299 91.4216 71.678 91.498 71.7083 91.5829C71.7386 91.6673 71.7495 91.7574 71.7403 91.8469C71.67 92.3811 71.4909 92.8953 71.2139 93.3579C70.937 93.8204 70.568 94.2215 70.1297 94.536C69.5673 94.9865 68.9665 95.3876 68.3342 95.7348L68.4218 95.6763Z" fill="url(#paint26_linear_15_94)"/>
<path d="M69.4168 96.8355C69.4168 96.8355 69.4168 96.8355 69.4168 96.894C69.4168 96.9526 69.4168 96.894 69.4168 96.9721V97.2837C69.4168 97.4983 69.4849 97.6837 69.5049 97.9953C69.5186 98.125 69.5186 98.2552 69.5049 98.3849C69.4872 98.4612 69.4649 98.5358 69.4363 98.6093C69.3418 98.8205 69.1753 98.9921 68.9659 99.0919C68.7571 99.1918 68.5185 99.2141 68.2948 99.1545C68.1901 99.1258 68.0911 99.0799 68.0018 99.0185C67.8382 98.8888 67.6969 98.7344 67.5819 98.5605C67.3662 98.2099 67.2265 97.8185 67.1722 97.4105C67.1138 97.1086 67.0646 96.8355 66.9965 96.6019C66.9731 96.5141 66.9405 96.4292 66.8987 96.3483C66.8987 96.2702 66.7917 96.2897 66.8987 96.222C67.0063 96.1537 67.0257 96.0074 67.0354 96.0757C67.0166 96.1555 67.0166 96.2392 67.0354 96.319V96.0952C67.1047 96.1469 67.1802 96.1899 67.2603 96.222C67.2603 96.222 67.2603 96.222 67.2603 96.319C67.2403 96.4877 67.2403 96.6576 67.2603 96.8257C67.2603 96.9233 67.2603 97.0111 67.2603 97.1379L67.3673 97.6934C67.4457 98.0636 67.5332 98.4337 67.5819 98.7648C67.6728 99.2388 67.615 99.7289 67.4159 100.168C67.3616 100.275 67.2769 100.363 67.1722 100.422C67.0618 100.47 66.9405 100.486 66.8209 100.47C66.6023 100.435 66.3929 100.355 66.2058 100.236H66.128C65.6588 99.9166 65.2497 99.5177 64.9179 99.0575C64.7416 98.8262 64.5522 98.6053 64.352 98.3947L64.1861 98.2483C64.2198 98.1823 64.2496 98.1141 64.2736 98.044C64.3325 97.9172 64.2736 97.8587 64.2736 97.9075C64.3405 97.9603 64.4166 98.0004 64.4985 98.0245C64.6541 98.0245 64.586 98.0245 64.6055 98.0245C64.6003 98.063 64.6003 98.1026 64.6055 98.1416C64.5917 98.2449 64.5917 98.3499 64.6055 98.4532C64.653 98.6707 64.7216 98.8825 64.8103 99.0868C65.0054 99.5057 65.1816 99.9636 65.4156 100.422C65.5524 100.704 65.347 100.821 64.9568 100.753C64.6764 100.698 64.4109 100.582 64.1798 100.414C63.9486 100.246 63.7575 100.028 63.6196 99.7783C63.4165 99.3834 63.2746 98.9594 63.2002 98.5215C63.1545 98.2374 63.1545 97.9476 63.2002 97.6641C63.2414 97.4736 63.3284 97.2963 63.4537 97.1477C63.5733 97.0013 63.7329 96.8929 63.9126 96.8355C64.0098 96.8211 64.1082 96.8211 64.2055 96.8355H64.4104C64.6604 96.8785 64.8933 96.9899 65.0838 97.1574C65.1759 97.2366 65.264 97.3215 65.347 97.4105C65.4351 97.4885 65.4059 97.469 65.4156 97.4885C65.4311 97.5356 65.4505 97.5809 65.474 97.6251C65.474 97.6251 65.5621 97.7709 65.6497 97.8099C65.668 97.8237 65.6903 97.8306 65.7132 97.8306C65.7361 97.8306 65.7584 97.8237 65.7767 97.8099C65.799 97.7439 65.799 97.6716 65.7767 97.6056L65.6886 97.0599C65.6039 96.6197 65.6239 96.1658 65.7475 95.7348C65.8082 95.5598 65.9048 95.3997 66.0307 95.2637C66.1566 95.1277 66.3094 95.0198 66.4793 94.9452C66.6401 94.8792 66.8129 94.8465 66.9868 94.8476C67.1796 94.8453 67.3702 94.8889 67.543 94.9744C67.8948 95.1696 68.1655 95.484 68.3045 95.8611C68.3961 96.1124 68.4716 96.3695 68.5288 96.6312L68.6753 97.3129C68.6924 97.4088 68.7148 97.5029 68.7434 97.5959C68.7388 97.6412 68.7388 97.6865 68.7434 97.7319L68.812 97.8197L68.7531 97.8782C68.7142 97.9212 68.6787 97.9671 68.6461 98.0148C68.5774 98.1318 68.5288 98.1514 68.5093 98.2093C68.5116 98.242 68.5116 98.2747 68.5093 98.3069C68.5093 98.2191 67.7283 98.2093 67.9435 98.1898V98.0538L67.8359 97.2837C67.71 96.6587 67.674 96.0189 67.7283 95.3836C67.7489 94.8901 67.9463 94.4195 68.2851 94.0586C68.3623 93.9977 68.4435 93.9426 68.5288 93.8927C68.6261 93.8348 68.7239 93.786 68.7725 93.825L69.1336 93.961C69.3293 94.2049 69.5341 94.4385 69.7487 94.7116L70.3735 95.5982C70.4707 95.7348 70.5977 95.9098 70.6853 96.0172C70.7528 96.1084 70.8278 96.1928 70.9101 96.2702C70.9702 96.3402 71.0395 96.4028 71.115 96.4556H71.1636C71.1493 96.513 71.1493 96.5732 71.1636 96.6312C71.1688 96.6054 71.1688 96.579 71.1636 96.5531C71.1344 96.5084 71.0892 96.4768 71.0366 96.4653C71.0349 96.443 71.0349 96.42 71.0366 96.3971C71.0475 96.3259 71.0475 96.2542 71.0366 96.183C70.9965 95.9919 70.9273 95.8077 70.8318 95.6373C70.6269 95.2476 70.3145 94.8476 70.0319 94.3604C69.8825 94.1291 69.7612 93.8801 69.6708 93.6201C69.5976 93.3424 69.5976 93.0503 69.6708 92.7725C69.7126 92.5516 69.8299 92.3519 70.0021 92.2073C70.0914 92.1195 70.2075 92.065 70.3317 92.0529C70.4564 92.0403 70.5812 92.0707 70.6853 92.139C70.778 92.1809 70.8638 92.2365 70.9393 92.3048C71.1442 92.4896 70.9393 93.0256 71.0955 93.0549C71.2517 93.0841 71.2906 93.4445 71.5441 93.7957C71.8468 94.2095 72.1117 94.6496 72.3348 95.111C72.491 95.441 72.5809 95.7985 72.5986 96.1635C72.61 96.4039 72.5803 96.6444 72.5105 96.8745C72.467 97.0048 72.4149 97.1316 72.3543 97.2544C72.2135 97.4776 72.019 97.6618 71.7884 97.7904C71.5138 97.9172 71.2054 97.9516 70.9101 97.8879L70.5977 97.7806L70.4221 97.6837C70.2459 97.5712 70.0822 97.4403 69.934 97.2934C69.8276 97.185 69.7263 97.0713 69.6314 96.9526L69.5633 96.8745C69.5633 96.816 69.5049 96.816 69.5049 96.8745L69.4168 96.8355Z" fill="url(#paint27_linear_15_94)"/>
<path d="M66.4644 64.2951L69.0827 61.8682L72.8229 63.9221C73.1971 64.7932 73.9838 66.5733 74.1331 66.7226C74.3202 66.9091 72.6369 68.2163 72.4504 68.2163C72.3005 68.2163 68.0247 67.4691 65.9048 67.0961L66.4644 64.2951Z" fill="white"/>
<path fill-rule="evenodd" clip-rule="evenodd" d="M74.6252 65.4733C74.7505 65.9088 74.7768 66.3668 74.7025 66.8138C74.6286 67.2511 74.4541 67.6648 74.1926 68.0229C74.0553 68.2089 73.898 68.3787 73.7246 68.5314C73.5524 68.6714 73.3653 68.7925 73.1662 68.8912L72.8761 69.0255L72.5872 69.1144C72.3989 69.1695 72.2061 69.2108 72.0116 69.2384C71.2992 69.3313 70.5766 69.3267 69.8654 69.2246C68.2198 68.9842 66.6126 68.5325 65.0826 67.8818L65.0947 65.829C65.1307 65.8457 65.1667 65.8612 65.2028 65.8773C65.2463 65.425 65.3458 64.9803 65.5009 64.5528L65.5152 64.5769C65.688 64.1482 65.9008 63.7373 66.1503 63.3482C66.2476 63.2128 66.3082 63.0607 66.4101 62.9322C66.7848 62.4909 67.222 62.1064 67.7089 61.7925C67.7873 61.742 67.8651 61.6938 67.9418 61.6444C67.7884 61.5589 67.6339 61.4746 67.4783 61.3925L67.2563 59.3943C68.3726 59.9481 69.4162 60.5237 70.4507 61.1917C71.5504 61.8269 72.5586 62.608 73.4483 63.5129C73.9792 64.0725 74.3809 64.7422 74.6252 65.4733ZM72.9493 66.4046C72.9625 66.2285 72.9322 66.0511 72.8612 65.8893C72.6398 65.277 72.0276 64.6515 71.4005 64.077C70.6561 63.4297 69.8671 62.8375 69.0386 62.3038C68.729 62.5741 68.3863 62.8042 68.0178 62.9879C67.7632 63.1818 67.5613 63.4355 67.4291 63.7264C67.2368 64.0271 67.0743 64.3462 66.945 64.679C66.8638 64.8868 66.8009 65.1014 66.7551 65.3195C66.6841 65.65 66.6607 65.9892 66.6864 66.3266C66.6956 66.3828 66.707 66.4385 66.7207 66.4936C67.3261 66.7105 67.9417 66.8987 68.566 67.056L68.558 67.099C69.1301 67.2494 69.712 67.3624 70.2996 67.4376C70.8289 67.5076 71.365 67.5019 71.8931 67.4204C72.015 67.4026 72.1037 67.3624 72.2101 67.3429C72.2942 67.3096 72.3755 67.2712 72.4538 67.227C72.5185 67.1926 72.5769 67.1484 72.6272 67.0956C72.689 67.0388 72.7428 66.9733 72.7868 66.9016C72.8807 66.7512 72.9362 66.5808 72.9493 66.4046Z" fill="url(#paint28_linear_15_94)"/>
</g>
<defs>
<linearGradient id="paint0_linear_15_94" x1="55.5" y1="5.17488e-06" x2="55.5" y2="101" gradientUnits="userSpaceOnUse">
<stop/>
</linearGradient>
<linearGradient id="paint1_linear_15_94" x1="55.5" y1="0" x2="55.5" y2="101" gradientUnits="userSpaceOnUse">
<stop/>
</linearGradient>
<linearGradient id="paint2_linear_15_94" x1="55.5" y1="1.12507e-06" x2="55.5" y2="101" gradientUnits="userSpaceOnUse">
<stop/>
</linearGradient>
<linearGradient id="paint3_linear_15_94" x1="55.5" y1="-2.27548e-06" x2="55.5" y2="101" gradientUnits="userSpaceOnUse">
<stop/>
</linearGradient>
<linearGradient id="paint4_linear_15_94" x1="55.5" y1="-1.97549e-06" x2="55.5" y2="101" gradientUnits="userSpaceOnUse">
<stop/>
</linearGradient>
<linearGradient id="paint5_linear_15_94" x1="55.5" y1="-3.12991e-06" x2="55.5" y2="101" gradientUnits="userSpaceOnUse">
<stop/>
</linearGradient>
<linearGradient id="paint6_linear_15_94" x1="55.5" y1="4.28032e-06" x2="55.5" y2="101" gradientUnits="userSpaceOnUse">
<stop/>
</linearGradient>
<linearGradient id="paint7_linear_15_94" x1="55.5" y1="4.22091e-05" x2="55.5" y2="101" gradientUnits="userSpaceOnUse">
<stop/>
</linearGradient>
<linearGradient id="paint8_linear_15_94" x1="55.5" y1="1.37138e-05" x2="55.5" y2="101" gradientUnits="userSpaceOnUse">
<stop/>
</linearGradient>
<linearGradient id="paint9_linear_15_94" x1="55.5" y1="-9.00029e-06" x2="55.5" y2="101" gradientUnits="userSpaceOnUse">
<stop/>
</linearGradient>
<linearGradient id="paint10_linear_15_94" x1="55.5" y1="5.05728e-06" x2="55.5" y2="101" gradientUnits="userSpaceOnUse">
<stop/>
</linearGradient>
<linearGradient id="paint11_linear_15_94" x1="55.5" y1="5.69643e-06" x2="55.5" y2="101" gradientUnits="userSpaceOnUse">
<stop/>
</linearGradient>
<linearGradient id="paint12_linear_15_94" x1="55.5" y1="-6.24223e-06" x2="55.5" y2="101" gradientUnits="userSpaceOnUse">
<stop/>
</linearGradient>
<linearGradient id="paint13_linear_15_94" x1="55.5" y1="-2.93453e-05" x2="55.5" y2="101" gradientUnits="userSpaceOnUse">
<stop/>
</linearGradient>
<linearGradient id="paint14_linear_15_94" x1="55.5" y1="-2.04449e-05" x2="55.5" y2="101" gradientUnits="userSpaceOnUse">
<stop/>
</linearGradient>
<linearGradient id="paint15_linear_15_94" x1="55.5" y1="3.96204e-06" x2="55.5" y2="101" gradientUnits="userSpaceOnUse">
<stop/>
</linearGradient>
<linearGradient id="paint16_linear_15_94" x1="55.5" y1="-2.26149e-05" x2="55.5" y2="101" gradientUnits="userSpaceOnUse">
<stop/>
</linearGradient>
<linearGradient id="paint17_linear_15_94" x1="55.5" y1="-5.03601e-07" x2="55.5" y2="101" gradientUnits="userSpaceOnUse">
<stop/>
</linearGradient>
<linearGradient id="paint18_linear_15_94" x1="55.5" y1="1.16996e-05" x2="55.5" y2="101" gradientUnits="userSpaceOnUse">
<stop/>
</linearGradient>
<linearGradient id="paint19_linear_15_94" x1="55.5" y1="1.63651e-05" x2="55.5" y2="101" gradientUnits="userSpaceOnUse">
<stop/>
</linearGradient>
<linearGradient id="paint20_linear_15_94" x1="55.5" y1="4.39633e-06" x2="55.5" y2="101" gradientUnits="userSpaceOnUse">
<stop/>
</linearGradient>
<linearGradient id="paint21_linear_15_94" x1="55.5" y1="1.04475e-05" x2="55.5" y2="101" gradientUnits="userSpaceOnUse">
<stop/>
</linearGradient>
<linearGradient id="paint22_linear_15_94" x1="55.5" y1="-9.05916e-07" x2="55.5" y2="101" gradientUnits="userSpaceOnUse">
<stop/>
</linearGradient>
<linearGradient id="paint23_linear_15_94" x1="55.5" y1="-2.45338e-06" x2="55.5" y2="101" gradientUnits="userSpaceOnUse">
<stop/>
</linearGradient>
<linearGradient id="paint24_linear_15_94" x1="55.5" y1="-2.30839e-06" x2="55.5" y2="101" gradientUnits="userSpaceOnUse">
<stop/>
</linearGradient>
<linearGradient id="paint25_linear_15_94" x1="55.5" y1="-6.75925e-06" x2="55.5" y2="101" gradientUnits="userSpaceOnUse">
<stop/>
</linearGradient>
<linearGradient id="paint26_linear_15_94" x1="55.5" y1="6.04365e-05" x2="55.5" y2="101" gradientUnits="userSpaceOnUse">
<stop/>
</linearGradient>
<linearGradient id="paint27_linear_15_94" x1="55.5" y1="-5.18979e-07" x2="55.5" y2="101" gradientUnits="userSpaceOnUse">
<stop/>
</linearGradient>
<linearGradient id="paint28_linear_15_94" x1="55.5" y1="7.66826e-06" x2="55.5" y2="101" gradientUnits="userSpaceOnUse">
<stop/>
</linearGradient>
<clipPath id="clip0_15_94">
<rect width="111" height="101" fill="white"/>
</clipPath>
</defs>
</svg>
