<svg width="16" height="16" viewBox="0 0 16 16" fill="none" xmlns="http://www.w3.org/2000/svg">
<path fill-rule="evenodd" clip-rule="evenodd" d="M3.22007 7.595C3.07962 7.73562 3.00073 7.92625 3.00073 8.125C3.00073 8.32375 3.07962 8.51437 3.22007 8.655L6.47007 11.905C6.61225 12.0375 6.80029 12.1096 6.9946 12.1062C7.1889 12.1027 7.37428 12.024 7.51169 11.8866C7.64911 11.7492 7.72782 11.5638 7.73125 11.3695C7.73468 11.1752 7.66255 10.9872 7.53007 10.845L4.81007 8.125L7.53007 5.405C7.66255 5.26282 7.73468 5.07478 7.73125 4.88048C7.72782 4.68618 7.64911 4.50079 7.51169 4.36338C7.37428 4.22596 7.1889 4.14725 6.9946 4.14382C6.80029 4.1404 6.61225 4.21252 6.47007 4.345L3.22007 7.595ZM11.4701 4.345L8.22007 7.595C8.07962 7.73562 8.00073 7.92625 8.00073 8.125C8.00073 8.32375 8.07962 8.51437 8.22007 8.655L11.4701 11.905C11.5387 11.9787 11.6215 12.0378 11.7135 12.0788C11.8055 12.1198 11.9048 12.1418 12.0056 12.1436C12.1063 12.1454 12.2063 12.1268 12.2997 12.0891C12.3931 12.0514 12.4779 11.9953 12.5491 11.924C12.6203 11.8528 12.6765 11.768 12.7142 11.6746C12.7519 11.5812 12.7704 11.4812 12.7687 11.3805C12.7669 11.2798 12.7448 11.1805 12.7039 11.0885C12.6629 10.9965 12.6038 10.9137 12.5301 10.845L9.81007 8.125L12.5301 5.405C12.6626 5.26282 12.7347 5.07478 12.7312 4.88048C12.7278 4.68618 12.6491 4.50079 12.5117 4.36338C12.3743 4.22596 12.1889 4.14725 11.9946 4.14382C11.8003 4.1404 11.6122 4.21252 11.4701 4.345Z" fill="#71717A"/>
</svg>
