<svg width="16" height="16" viewBox="0 0 16 16" fill="none" xmlns="http://www.w3.org/2000/svg">
<path fill-rule="evenodd" clip-rule="evenodd" d="M4 2C3.60218 2 3.22064 2.15804 2.93934 2.43934C2.65804 2.72065 2.5 3.10218 2.5 3.5V12.5C2.5 12.8978 2.65804 13.2794 2.93934 13.5607C3.22064 13.842 3.60218 14 4 14H12C12.3978 14 12.7794 13.842 13.0607 13.5607C13.342 13.2794 13.5 12.8978 13.5 12.5V6.621C13.4997 6.22331 13.3414 5.84204 13.06 5.561L9.94 2.439C9.80052 2.29961 9.63494 2.1891 9.45271 2.11377C9.27048 2.03844 9.07518 1.99978 8.878 2H4ZM5 7.75C5 7.55109 5.07902 7.36032 5.21967 7.21967C5.36032 7.07902 5.55109 7 5.75 7H10.25C10.4489 7 10.6397 7.07902 10.7803 7.21967C10.921 7.36032 11 7.55109 11 7.75C11 7.94891 10.921 8.13968 10.7803 8.28033C10.6397 8.42098 10.4489 8.5 10.25 8.5H5.75C5.55109 8.5 5.36032 8.42098 5.21967 8.28033C5.07902 8.13968 5 7.94891 5 7.75ZM5 10.75C5 10.5511 5.07902 10.3603 5.21967 10.2197C5.36032 10.079 5.55109 10 5.75 10H10.25C10.4489 10 10.6397 10.079 10.7803 10.2197C10.921 10.3603 11 10.5511 11 10.75C11 10.9489 10.921 11.1397 10.7803 11.2803C10.6397 11.421 10.4489 11.5 10.25 11.5H5.75C5.55109 11.5 5.36032 11.421 5.21967 11.2803C5.07902 11.1397 5 10.9489 5 10.75Z" fill="#363535"/>
</svg>
