<svg width="14" height="12" viewBox="0 0 14 12" fill="none" xmlns="http://www.w3.org/2000/svg">
<path d="M2.38001 1.0248C2.41665 0.931753 2.43431 0.832323 2.43196 0.732353C2.4296 0.632384 2.40728 0.533895 2.36631 0.442678C2.32533 0.351462 2.26653 0.26936 2.19336 0.201203C2.12019 0.133045 2.03413 0.0802085 1.94024 0.0457997C1.84635 0.011391 1.74652 -0.00389468 1.64664 0.000841868C1.54676 0.00557842 1.44883 0.0302415 1.35861 0.0733805C1.2684 0.116519 1.18772 0.177263 1.12133 0.252039C1.05494 0.326814 1.00417 0.414112 0.97201 0.508796C0.326985 2.27206 -0.00205311 4.13526 9.63857e-06 6.0128C9.63857e-06 7.9448 0.34301 9.7988 0.97201 11.5158C1.04376 11.698 1.18391 11.8449 1.36253 11.9251C1.54115 12.0054 1.74407 12.0126 1.92793 11.9452C2.11178 11.8778 2.262 11.7412 2.34647 11.5646C2.43095 11.3879 2.44298 11.1852 2.38001 10.9998C1.79581 9.40211 1.49792 7.71393 1.50001 6.0128C1.50001 4.2588 1.81101 2.5788 2.38001 1.0248ZM11.62 1.0248C11.5834 0.931753 11.5657 0.832323 11.5681 0.732353C11.5704 0.632384 11.5927 0.533895 11.6337 0.442678C11.6747 0.351462 11.7335 0.26936 11.8067 0.201203C11.8798 0.133045 11.9659 0.0802085 12.0598 0.0457997C12.1537 0.011391 12.2535 -0.00389468 12.3534 0.000841868C12.4533 0.00557842 12.5512 0.0302415 12.6414 0.0733805C12.7316 0.116519 12.8123 0.177263 12.8787 0.252039C12.9451 0.326814 12.9958 0.414112 13.028 0.508796C13.673 2.27206 14.0021 4.13526 14 6.0128C14.002 7.89 13.6729 9.75285 13.028 11.5158C12.9563 11.698 12.8161 11.8449 12.6375 11.9251C12.4589 12.0054 12.2559 12.0126 12.0721 11.9452C11.8882 11.8778 11.738 11.7412 11.6535 11.5646C11.5691 11.3879 11.557 11.1852 11.62 10.9998C12.189 9.4458 12.5 7.7668 12.5 6.0128C12.5 4.2588 12.189 2.5788 11.62 1.0248ZM5.52301 2.7978C5.69342 2.74371 5.87754 2.75227 6.04219 2.82195C6.20684 2.89162 6.34119 3.01782 6.42101 3.1778L7.17901 4.6928L7.99101 3.7908C8.29674 3.45135 8.69384 3.20724 9.13475 3.0877C9.57567 2.96816 10.0417 2.97826 10.477 3.1168C10.5734 3.14442 10.6633 3.1911 10.7414 3.25407C10.8195 3.31705 10.8841 3.39505 10.9315 3.48344C10.9789 3.57184 11.008 3.66885 11.0173 3.76872C11.0265 3.86859 11.0156 3.9693 10.9853 4.06489C10.9549 4.16048 10.9057 4.24901 10.8405 4.32523C10.7753 4.40146 10.6955 4.46384 10.6058 4.50868C10.516 4.55352 10.4182 4.5799 10.3181 4.58628C10.218 4.59265 10.1177 4.57889 10.023 4.5458C9.86227 4.49448 9.69012 4.49068 9.52727 4.53485C9.36442 4.57902 9.21779 4.66929 9.10501 4.7948L7.90001 6.1348L8.63401 7.6028L9.02201 7.4788C9.20948 7.42486 9.41058 7.44608 9.58266 7.53797C9.75474 7.62985 9.88424 7.78517 9.9437 7.97096C10.0032 8.15675 9.98789 8.35839 9.90113 8.53311C9.81438 8.70783 9.66296 8.84187 9.47901 8.9068L8.47901 9.2268C8.30859 9.28123 8.12432 9.27295 7.95946 9.20345C7.79461 9.13395 7.66003 9.00781 7.58001 8.8478L6.82101 7.3328L6.01001 8.2338C5.70407 8.57384 5.3064 8.81826 4.86484 8.93765C4.42328 9.05704 3.95663 9.04633 3.52101 8.9068C3.33561 8.84288 3.18263 8.70889 3.09482 8.53354C3.00702 8.35819 2.99139 8.15543 3.05128 7.9687C3.11118 7.78196 3.24182 7.62611 3.41523 7.53454C3.58864 7.44297 3.79102 7.42296 3.97901 7.4788C4.13936 7.53007 4.3111 7.53394 4.4736 7.48994C4.6361 7.44595 4.78243 7.35596 4.89501 7.2308L6.10001 5.8908L5.36601 4.4228L4.97701 4.5468C4.78738 4.607 4.5816 4.58941 4.40494 4.49789C4.22828 4.40637 4.09521 4.24843 4.03501 4.0588C3.97481 3.86917 3.9924 3.66339 4.08391 3.48673C4.17543 3.31007 4.33338 3.177 4.52301 3.1168L5.52301 2.7978Z" fill="#363535"/>
</svg>
