<svg width="16" height="16" viewBox="0 0 16 16" fill="none" xmlns="http://www.w3.org/2000/svg">
<path d="M16 8.18385C16 7.64007 15.955 7.09333 15.859 6.55835H8.16107V9.63891H12.5694C12.3864 10.6324 11.7986 11.5113 10.938 12.0698V14.0687H13.5679C15.1124 12.6753 16 10.6177 16 8.18385Z" fill="#4285F4"/>
<path d="M8.16111 16C10.3622 16 12.2185 15.2915 13.5709 14.0688L10.941 12.0699C10.2093 12.5579 9.26462 12.8342 8.16407 12.8342C6.0349 12.8342 4.2296 11.4262 3.58186 9.5332H0.86792V11.5938C2.25338 14.2951 5.07527 16 8.16111 16Z" fill="#34A853"/>
<path d="M3.5791 9.53304C3.23724 8.53948 3.23724 7.46366 3.5791 6.47012V4.40958H0.86816C-0.289387 6.67001 -0.289387 9.33313 0.86816 11.5936L3.5791 9.53304Z" fill="#FBBC04"/>
<path d="M8.16111 3.16631C9.32462 3.14868 10.4492 3.57783 11.2918 4.36561L13.622 2.08166C12.1466 0.723641 10.1883 -0.0229764 8.16111 0.000539088C5.07527 0.000539088 2.25338 1.70541 0.86792 4.4097L3.57886 6.47025C4.22361 4.57431 6.0319 3.16631 8.16111 3.16631Z" fill="#EA4335"/>
</svg>
