<svg width="12" height="12" viewBox="0 0 12 12" fill="none" xmlns="http://www.w3.org/2000/svg">
<path fill-rule="evenodd" clip-rule="evenodd" d="M10.4993 7.73129C10.4993 7.37016 10.4282 7.01256 10.29 6.67891C10.1518 6.34527 9.94925 6.04211 9.69388 5.78675C9.43852 5.53139 9.13537 5.32882 8.80172 5.19062C8.46807 5.05242 8.11048 4.98129 7.74934 4.98129H2.55934L4.77934 7.20129C4.85303 7.26995 4.91213 7.35275 4.95312 7.44475C4.99411 7.53675 5.01615 7.63607 5.01793 7.73677C5.01971 7.83747 5.00118 7.9375 4.96346 8.03089C4.92574 8.12428 4.8696 8.20911 4.79838 8.28033C4.72716 8.35155 4.64233 8.40769 4.54894 8.44541C4.45555 8.48314 4.35552 8.50166 4.25482 8.49988C4.15411 8.49811 4.0548 8.47606 3.9628 8.43507C3.8708 8.39408 3.788 8.33498 3.71934 8.26129L0.21934 4.76129C0.0788896 4.62067 0 4.43004 0 4.23129C0 4.03254 0.0788896 3.84192 0.21934 3.70129L3.71934 0.201292C3.86151 0.0688118 4.04956 -0.00331137 4.24386 0.000116847C4.43816 0.00354506 4.62355 0.0822571 4.76096 0.21967C4.89838 0.357083 4.97709 0.542468 4.98052 0.736769C4.98394 0.93107 4.91182 1.11912 4.77934 1.26129L2.55934 3.48129H7.74934C8.87651 3.48129 9.95751 3.92906 10.7545 4.72609C11.5516 5.52312 11.9993 6.60412 11.9993 7.73129C11.9993 8.85846 11.5516 9.93947 10.7545 10.7365C9.95751 11.5335 8.87651 11.9813 7.74934 11.9813H6.74934C6.55043 11.9813 6.35966 11.9023 6.21901 11.7616C6.07836 11.621 5.99934 11.4302 5.99934 11.2313C5.99934 11.0324 6.07836 10.8416 6.21901 10.701C6.35966 10.5603 6.55043 10.4813 6.74934 10.4813H7.74934C8.11048 10.4813 8.46807 10.4102 8.80172 10.272C9.13537 10.1338 9.43852 9.9312 9.69388 9.67584C9.94925 9.42047 10.1518 9.11732 10.29 8.78367C10.4282 8.45003 10.4993 8.09243 10.4993 7.73129Z" fill="#363535"/>
</svg>
