<svg width="12" height="13" viewBox="0 0 12 13" fill="none" xmlns="http://www.w3.org/2000/svg">
<path fill-rule="evenodd" clip-rule="evenodd" d="M1.5 7.76871C1.5 7.03936 1.78973 6.33989 2.30546 5.82416C2.82118 5.30844 3.52065 5.01871 4.25 5.01871H9.44L7.22 7.23871C7.14631 7.30737 7.08721 7.39017 7.04622 7.48217C7.00523 7.57417 6.98318 7.67348 6.98141 7.77419C6.97963 7.87489 6.99816 7.97492 7.03588 8.06831C7.0736 8.16169 7.12974 8.24653 7.20096 8.31775C7.27218 8.38896 7.35701 8.44511 7.4504 8.48283C7.54379 8.52055 7.64382 8.53908 7.74452 8.5373C7.84522 8.53552 7.94454 8.51348 8.03654 8.47249C8.12854 8.4315 8.21134 8.37239 8.28 8.29871L11.78 4.79871C11.9205 4.65808 11.9993 4.46746 11.9993 4.26871C11.9993 4.06996 11.9205 3.87933 11.78 3.73871L8.28 0.238708C8.21134 0.165021 8.12854 0.105919 8.03654 0.0649274C7.94454 0.0239354 7.84522 0.00189351 7.74452 0.000116722C7.64382 -0.00166006 7.54379 0.0168645 7.4504 0.0545855C7.35701 0.0923065 7.27218 0.148451 7.20096 0.21967C7.12974 0.290889 7.0736 0.375723 7.03588 0.469111C6.99816 0.562499 6.97963 0.662528 6.98141 0.763231C6.98318 0.863934 7.00523 0.963247 7.04622 1.05525C7.08721 1.14725 7.14631 1.23005 7.22 1.29871L9.44 3.51871H4.25C3.12283 3.51871 2.04183 3.96648 1.2448 4.7635C0.447767 5.56053 0 6.64154 0 7.76871C0 8.89588 0.447767 9.97688 1.2448 10.7739C2.04183 11.5709 3.12283 12.0187 4.25 12.0187H5.25C5.44891 12.0187 5.63968 11.9397 5.78033 11.799C5.92098 11.6584 6 11.4676 6 11.2687C6 11.0698 5.92098 10.879 5.78033 10.7384C5.63968 10.5977 5.44891 10.5187 5.25 10.5187H4.25C3.52065 10.5187 2.82118 10.229 2.30546 9.71325C1.78973 9.19753 1.5 8.49805 1.5 7.76871Z" fill="#363535"/>
</svg>
